<svg width="33" height="33" viewBox="0 0 33 33" fill="none" xmlns="http://www.w3.org/2000/svg">
<path d="M31.4815 7.60355C30.9952 6.00971 30.1444 4.56046 29.0012 3.37855C27.8579 2.19664 26.4559 1.31687 24.9139 0.813764C22.1134 0.278855 19.2719 0.00714168 16.424 0.00195312C13.5762 0.0073474 10.7346 0.279059 7.93416 0.813764C6.39193 1.31673 4.98972 2.19643 3.84628 3.37835C2.70285 4.56027 1.85188 6.00959 1.36546 7.60355C0.31568 13.4027 0.31568 19.3528 1.36546 25.152C1.85142 26.7463 2.70222 28.196 3.84571 29.3782C4.9892 30.5603 6.39165 31.4401 7.93416 31.9428C10.7346 32.4775 13.5762 32.7493 16.424 32.7546C17.231 32.7546 18.0352 32.7328 18.8366 32.6891C20.8755 32.574 22.9054 32.3254 24.9139 31.945C26.4575 31.4445 27.8611 30.5655 29.0049 29.383C30.1488 28.2006 30.9988 26.7496 31.4826 25.1541C32.0167 22.1671 32.2801 19.1351 32.2691 16.0975C32.2475 13.2482 31.9843 10.4064 31.4826 7.60462L31.4815 7.60355ZM21.4435 14.4406L21.1245 17.2905C21.1107 17.4204 21.0514 17.5406 20.9578 17.6286C20.8643 17.7166 20.7429 17.7663 20.6165 17.7684H17.7363L17.7249 26.2269C17.726 26.3272 17.6888 26.424 17.6213 26.4962C17.5538 26.5684 17.4614 26.6101 17.3643 26.6124H14.4436C14.3951 26.6124 14.3471 26.6023 14.3025 26.5827C14.2578 26.5631 14.2175 26.5344 14.1838 26.4983C14.1501 26.4623 14.1239 26.4195 14.1066 26.3727C14.0893 26.3258 14.0813 26.2759 14.0831 26.2258V17.7694H11.9219C11.7856 17.7672 11.6556 17.7096 11.5599 17.6092C11.4643 17.5087 11.4107 17.3734 11.4107 17.2325L11.4003 14.3794C11.3987 14.2373 11.4515 14.1004 11.5473 13.9986C11.6432 13.8967 11.7741 13.8383 11.9115 13.836H14.0831V11.0795C14.0831 7.88274 15.9201 6.13993 18.6132 6.13993H20.8212C20.8894 6.14077 20.9568 6.15549 21.0195 6.18325C21.0822 6.21102 21.139 6.25127 21.1867 6.30173C21.2344 6.35219 21.2719 6.41185 21.2973 6.47732C21.3226 6.54279 21.3353 6.61277 21.3344 6.68328V9.08865C21.3353 9.15916 21.3226 9.22914 21.2973 9.29461C21.2719 9.36008 21.2344 9.41974 21.1867 9.4702C21.139 9.52066 21.0822 9.56091 21.0195 9.58868C20.9568 9.61644 20.8894 9.63116 20.8212 9.632H19.4704C18.0064 9.632 17.7218 10.3762 17.7218 11.45V13.8339H20.9427C21.0161 13.8349 21.0883 13.852 21.1548 13.8839C21.2213 13.9159 21.2805 13.9621 21.3285 14.0194C21.3765 14.0767 21.4122 14.1438 21.4333 14.2164C21.4544 14.289 21.4603 14.3654 21.4508 14.4406H21.4435Z" fill="white"/>
</svg>
