<svg width="82" height="24" viewBox="0 0 82 24" fill="none" xmlns="http://www.w3.org/2000/svg">
<path d="M19.3625 17.8728V23.9048H0.0117188V20.1711L6.22391 12.7111C6.70005 12.9342 7.22827 13.1276 7.80113 13.2838L10.3455 13.9606C10.472 13.9978 10.591 14.0275 10.7026 14.0573C10.7473 14.0722 10.7993 14.087 10.8514 14.1094C10.8961 14.1317 10.9481 14.1465 10.9928 14.1614C11.3796 14.3027 11.7888 14.4887 11.9376 14.6226C12.1608 14.8234 12.2799 15.106 12.2799 15.4705C12.2799 15.5076 12.2799 15.5374 12.2799 15.5746C12.2501 16.0432 12.0269 16.4002 11.6028 16.6754C11.1639 16.9506 10.4199 17.0621 9.3858 17.0026C9.22956 16.9952 8.94685 16.9654 8.6939 16.9357C8.63438 16.9283 8.57486 16.9208 8.52279 16.9134C8.45583 16.8985 8.39631 16.8911 8.35167 16.8911L8.12848 17.1588L5.59153 20.2009H13.1503C14.4597 20.2009 15.5385 19.1744 15.6129 17.8803H19.3476L19.3625 17.8728Z" fill="#262626"/>
<path d="M8.51499 9.98807C8.51499 9.98807 8.49979 9.98807 8.49219 9.98047C8.49219 9.98047 8.50739 9.98047 8.51499 9.98807Z" fill="white"/>
<path d="M8.49219 9.98047C8.49219 9.98047 8.50739 9.98807 8.51499 9.99567C8.51499 9.99567 8.49979 9.98807 8.49219 9.98047ZM8.49219 9.98047C8.49219 9.98047 8.50739 9.98807 8.51499 9.99567C8.51499 9.99567 8.49979 9.98807 8.49219 9.98047ZM8.49219 9.98047C8.49219 9.98047 8.50739 9.98807 8.51499 9.99567C8.51499 9.99567 8.49979 9.98807 8.49219 9.98047Z" fill="#262626"/>
<path d="M19.3318 0V3.68911L16.4899 7.11047C15.8203 6.81296 15.1433 6.50801 14.4737 6.19563C14.7192 6.35182 14.9647 6.50801 15.2102 6.6642C15.2995 6.71627 15.3888 6.77577 15.4706 6.82783C15.6045 6.91709 15.7459 6.9989 15.8872 7.08072C15.9319 7.11047 15.984 7.13278 16.0286 7.16253C16.1253 7.21459 16.222 7.2741 16.3113 7.32616L13.0304 11.2756C12.6733 11.1343 12.279 11.0004 11.8326 10.8814L9.26587 10.2194C8.99804 10.1599 8.74509 10.0781 8.52933 9.9963C8.52933 9.9963 8.52437 9.9963 8.51445 9.9963C8.51445 9.9963 8.50701 9.98887 8.49957 9.98887C8.47726 9.97399 8.43262 9.95912 8.39542 9.9368C8.38798 9.92936 8.38054 9.92193 8.36566 9.92193C8.2987 9.88474 8.23174 9.85499 8.23174 9.85499C8.03831 9.7583 7.88952 9.65417 7.77048 9.5426C7.50265 9.26741 7.38361 8.94015 7.40593 8.53851C7.43569 7.98068 7.68864 7.57161 8.17967 7.30385C8.60373 7.06584 9.19891 6.94684 9.93545 6.94684C10.0619 6.94684 10.1958 6.94684 10.3446 6.96171C10.4339 6.96915 10.5306 6.97659 10.6273 6.98403C10.6348 6.98403 10.6943 6.9989 10.791 7.02121C10.8059 7.02121 10.8133 7.02121 10.8282 7.02865C10.8654 7.03609 10.9026 7.05096 10.9473 7.0584L11.2076 6.75346L13.752 3.68911H6.62476C5.29305 3.68911 4.20684 4.73039 4.11756 6.04687H0.382812V0H19.3318Z" fill="#262626"/>
<path d="M33.1779 9.95767V11.1775C32.047 10.2254 30.5739 9.66016 28.8926 9.66016C27.546 9.66016 26.311 10.0469 25.2694 10.7163C26.3258 11.1254 27.3749 11.527 28.4313 11.9287C30.7376 12.7617 33.6168 13.8104 36.8084 14.874V9.95767H33.1779ZM32.352 14.8368C32.352 14.8368 32.352 14.8443 32.3595 14.8517C32.7463 15.417 32.9621 16.0938 32.9621 16.8152C32.9621 18.7937 31.3626 20.3928 29.3836 20.3928C27.4046 20.3928 25.8051 18.7937 25.8051 16.8152C25.8051 15.1194 27.0103 13.684 28.6322 13.3493C28.6396 13.3493 28.6545 13.3418 28.6619 13.3418C27.1219 12.6947 25.6786 12.0625 24.3543 11.4378L24.3394 11.4526C22.9333 12.7617 22.0703 14.6806 22.0703 16.8152C22.0703 20.8019 25.0165 24.0001 28.9 24.0001C30.5814 24.0001 32.047 23.4274 33.1853 22.4828V23.7026H36.8159V16.4731C35.2907 15.945 33.7953 15.3946 32.3595 14.8368H32.352Z" fill="#262626"/>
<path d="M39.5234 17.3731V23.7026H43.1243V18.459C41.9116 18.1169 40.7064 17.7524 39.5234 17.3731ZM43.1243 11.7427V9.95767H39.5234V15.7591C40.7212 16.1384 41.9562 16.5103 43.2061 16.8673C43.5707 13.922 45.1107 13.26 47.3277 13.26V9.66016C45.4827 9.66016 44.0989 10.3891 43.1243 11.7427Z" fill="#262626"/>
<path d="M58.1958 13.3509V9.96669H54.4537V6.90234H50.8231V9.96669H48.5391V13.3509H50.8231V18.7878C52.0581 19.0482 53.3005 19.2787 54.5206 19.4647C54.4834 19.2936 54.4611 19.1077 54.4611 18.9068V13.3509H58.2033H58.1958ZM58.4562 21.1233C56.0532 21.0489 53.5088 20.7514 50.9347 20.2828C50.9347 20.2903 50.9347 20.3051 50.9347 20.3126C51.381 22.834 53.1071 23.9199 55.5919 23.9199C57.3552 23.9199 58.6199 22.9753 59.4085 22.0753L58.4562 21.1233Z" fill="#262626"/>
<path d="M79.6172 3.96875C80.7034 3.96875 81.5962 4.86128 81.5962 5.94718C81.5962 7.03309 80.7034 7.92562 79.6172 7.92562C78.531 7.92562 77.668 7.03309 77.668 5.94718C77.668 4.86128 78.5384 3.96875 79.6172 3.96875ZM77.8242 9.95612H81.4325V23.701H77.8242V9.95612Z" fill="#262626"/>
<path d="M64.9046 23.7091H61.3047V21.1283C62.2047 21.0911 63.0897 21.0093 63.9376 20.8828C64.0418 21.9538 64.3393 23.0398 64.8971 23.7091H64.9046Z" fill="#262626"/>
<path d="M70.289 18.6158C69.7609 18.8538 69.2031 19.0546 68.6304 19.2405C68.5188 18.5637 68.8609 18.0728 69.4485 17.8125C69.6047 17.9761 69.7683 18.1398 69.9171 18.3108C70.0063 18.415 70.1105 18.5042 70.222 18.5786C70.2443 18.5935 70.2667 18.6083 70.289 18.6232V18.6158Z" fill="#262626"/>
<path d="M74.946 16.6138V23.7169H70.2515C70.378 22.869 69.7903 21.9913 69.3216 21.2252C69.0314 20.7492 68.838 20.1914 68.7041 19.6261C69.329 19.3658 69.9167 19.0683 70.4747 18.7336C70.9211 18.9865 71.4196 19.1724 71.6577 19.7005C71.6874 19.7749 71.9032 19.7972 72.0296 19.7972C72.7736 19.8046 73.1977 19.1427 72.8926 18.4212C72.4909 17.4841 72.1115 16.5395 71.613 15.6544C71.2559 15.0222 70.9732 14.4123 71.0922 13.5421C70.8765 13.7949 70.7574 13.9288 70.5417 14.1817C70.6012 13.7503 70.6384 13.4602 70.6979 13.0735C70.3929 13.3115 70.1176 13.4454 69.954 13.6611C69.6638 14.0478 69.3439 14.085 68.8752 14.0255C66.4721 13.7354 64.0989 15.9965 63.8013 18.2055C64.0022 18.2055 64.0394 17.7964 64.2625 17.7964C64.2625 17.8708 64.27 17.9303 64.2477 17.9749C64.0393 18.4361 63.9129 19.2096 63.9129 20.0575C63.0647 20.117 62.2017 20.1393 61.3164 20.1244V3.52344H64.9247V11.1397C65.8472 10.2174 67.0971 9.67444 68.6446 9.67444C72.9001 9.67444 74.9609 12.7611 74.9609 16.6138H74.946Z" fill="#262626"/>
<path d="M16.3148 7.3243C16.2178 7.27207 16.1282 7.21984 16.0312 7.16016C16.1282 7.21238 16.2252 7.27207 16.3148 7.3243Z" fill="white"/>
<path d="M28.6623 13.3416C28.6623 13.3416 28.64 13.3416 28.6326 13.349C27.1 12.7019 25.6567 12.0623 24.3398 11.4524L24.3547 11.4375C25.679 12.0548 27.1223 12.6945 28.6623 13.3416Z" fill="white"/>
<path d="M36.808 16.4722V16.4946C35.2828 15.959 33.7949 15.4086 32.359 14.8508C32.359 14.8508 32.359 14.8434 32.3516 14.8359C33.7874 15.3938 35.2828 15.9442 36.808 16.4722Z" fill="white"/>
<path d="M43.1233 18.457V18.4793C41.9184 18.1372 40.7135 17.7727 39.5234 17.386V17.3711C40.706 17.7504 41.9109 18.1149 43.1233 18.457Z" fill="white"/>
<path d="M58.4927 21.1589C56.0748 21.0771 53.5304 20.7796 50.9414 20.311C50.9414 20.3036 50.9414 20.2887 50.9414 20.2812C53.523 20.7498 56.06 21.0473 58.463 21.1217L58.5002 21.1589H58.4927Z" fill="white"/>
<path d="M71.8842 17.7593C64.3924 23.4194 50.8223 20.1617 42.4229 17.8783C32.7735 14.9627 23.3027 11.2216 14.5312 6.23828C16.7706 7.39113 19.0769 8.4101 21.3907 9.39932C33.1306 14.3157 60.5907 25.3979 71.8842 17.7593Z" fill="#262626"/>
</svg>
