<svg width="32" height="33" viewBox="0 0 32 33" fill="none" xmlns="http://www.w3.org/2000/svg">
<path d="M20.0467 8.20322H12.0462C11.5332 8.20308 11.0252 8.30738 10.5512 8.51017C10.0773 8.71296 9.64658 9.01026 9.2838 9.3851C8.92101 9.75994 8.63323 10.205 8.43688 10.6948C8.24054 11.1846 8.13948 11.7095 8.13948 12.2397V20.5082C8.13934 21.0384 8.2403 21.5635 8.43658 22.0534C8.63287 22.5434 8.92063 22.9885 9.28343 23.3635C9.64623 23.7384 10.077 24.0358 10.551 24.2387C11.0251 24.4415 11.5331 24.5459 12.0462 24.5457H20.0467C20.5598 24.5459 21.0678 24.4415 21.5419 24.2387C22.0159 24.0358 22.4467 23.7384 22.8095 23.3635C23.1723 22.9885 23.46 22.5434 23.6563 22.0534C23.8526 21.5635 23.9535 21.0384 23.9534 20.5082V12.2397C23.9534 11.7095 23.8523 11.1846 23.656 10.6948C23.4597 10.205 23.1719 9.75994 22.8091 9.3851C22.4463 9.01026 22.0156 8.71296 21.5416 8.51017C21.0677 8.30738 20.5597 8.20308 20.0467 8.20322ZM16.0412 21.6722C15.0281 21.6722 14.0378 21.3617 13.1954 20.78C12.353 20.1983 11.6965 19.3715 11.3088 18.4041C10.9211 17.4368 10.8196 16.3724 11.0173 15.3454C11.2149 14.3185 11.7028 13.3752 12.4192 12.6348C13.1356 11.8945 14.0483 11.3903 15.0419 11.186C16.0356 10.9817 17.0655 11.0866 18.0015 11.4873C18.9375 11.8879 19.7375 12.5665 20.3004 13.4371C20.8632 14.3077 21.1636 15.3312 21.1636 16.3782C21.1636 17.7823 20.624 19.1288 19.6633 20.1216C18.7027 21.1144 17.3998 21.6722 16.0412 21.6722ZM21.1896 12.3901C20.9403 12.3901 20.6967 12.3137 20.4894 12.1705C20.2821 12.0274 20.1206 11.824 20.0252 11.586C19.9298 11.348 19.9049 11.0861 19.9535 10.8334C20.0021 10.5807 20.1222 10.3486 20.2984 10.1665C20.4747 9.9843 20.6992 9.86025 20.9437 9.80999C21.1882 9.75973 21.4416 9.78552 21.6719 9.88411C21.9022 9.9827 22.099 10.1496 22.2375 10.3638C22.376 10.5781 22.4499 10.8299 22.4499 11.0875C22.4499 11.433 22.3172 11.7643 22.0808 12.0085C21.8444 12.2528 21.5239 12.3901 21.1896 12.3901ZM16.0381 13.1417C15.4188 13.1417 14.8133 13.3315 14.2983 13.6872C13.7833 14.0428 13.3819 14.5483 13.1449 15.1397C12.9079 15.7311 12.8459 16.3818 12.9667 17.0096C13.0875 17.6375 13.3858 18.2142 13.8237 18.6668C14.2617 19.1194 14.8197 19.4277 15.4272 19.5525C16.0347 19.6774 16.6643 19.6133 17.2365 19.3684C17.8088 19.1234 18.2979 18.7086 18.642 18.1763C18.9861 17.6441 19.1697 17.0184 19.1697 16.3782C19.1697 15.5204 18.8402 14.6977 18.2536 14.0908C17.667 13.4839 16.8713 13.1426 16.0412 13.1417H16.0381ZM20.0404 8.20214H12.04C11.527 8.202 11.019 8.30631 10.545 8.5091C10.071 8.71189 9.64035 9.00919 9.27756 9.38403C8.91477 9.75887 8.62699 10.2039 8.43065 10.6937C8.2343 11.1835 8.13324 11.7085 8.13324 12.2386V20.5071C8.13311 21.0373 8.23407 21.5624 8.43035 22.0524C8.62663 22.5423 8.91439 22.9874 9.27719 23.3624C9.63999 23.7373 10.0707 24.0347 10.5448 24.2376C11.0188 24.4405 11.5269 24.5448 12.04 24.5447H20.0404C20.5535 24.5448 21.0616 24.4405 21.5356 24.2376C22.0097 24.0347 22.4404 23.7373 22.8032 23.3624C23.166 22.9874 23.4538 22.5423 23.6501 22.0524C23.8463 21.5624 23.9473 21.0373 23.9472 20.5071V12.2386C23.9469 11.1692 23.536 10.1436 22.8047 9.387C22.0734 8.63039 21.0814 8.20464 20.0467 8.20322L20.0404 8.20214ZM16.0412 21.6722C15.0281 21.6722 14.0378 21.3617 13.1954 20.78C12.353 20.1983 11.6965 19.3715 11.3088 18.4041C10.9211 17.4368 10.8196 16.3724 11.0173 15.3454C11.2149 14.3185 11.7028 13.3752 12.4192 12.6348C13.1356 11.8945 14.0483 11.3903 15.0419 11.186C16.0356 10.9817 17.0655 11.0866 18.0015 11.4873C18.9375 11.8879 19.7375 12.5665 20.3004 13.4371C20.8632 14.3077 21.1636 15.3312 21.1636 16.3782C21.1636 17.7823 20.624 19.1288 19.6633 20.1216C18.7027 21.1144 17.3998 21.6722 16.0412 21.6722ZM21.1896 12.3901C20.9403 12.3901 20.6967 12.3137 20.4894 12.1705C20.2821 12.0274 20.1206 11.824 20.0252 11.586C19.9298 11.348 19.9049 11.0861 19.9535 10.8334C20.0021 10.5807 20.1222 10.3486 20.2984 10.1665C20.4747 9.9843 20.6992 9.86025 20.9437 9.80999C21.1882 9.75973 21.4416 9.78552 21.6719 9.88411C21.9022 9.9827 22.099 10.1496 22.2375 10.3638C22.376 10.5781 22.4499 10.8299 22.4499 11.0875C22.4499 11.433 22.3172 11.7643 22.0808 12.0085C21.8444 12.2528 21.5239 12.3901 21.1896 12.3901ZM16.0381 13.1417C15.4188 13.1417 14.8133 13.3315 14.2983 13.6872C13.7833 14.0428 13.3819 14.5483 13.1449 15.1397C12.9079 15.7311 12.8459 16.3818 12.9667 17.0096C13.0875 17.6375 13.3858 18.2142 13.8237 18.6668C14.2617 19.1194 14.8197 19.4277 15.4272 19.5525C16.0347 19.6774 16.6643 19.6133 17.2365 19.3684C17.8088 19.1234 18.2979 18.7086 18.642 18.1763C18.9861 17.6441 19.1697 17.0184 19.1697 16.3782C19.1697 15.5204 18.8402 14.6977 18.2536 14.0908C17.667 13.4839 16.8713 13.1426 16.0412 13.1417H16.0381ZM31.3429 5.85799C31.2028 4.50276 30.6179 3.23796 29.6856 2.27402C28.7533 1.31008 27.5297 0.705103 26.2185 0.559744C19.4556 -0.18593 12.6352 -0.18593 5.87233 0.559744C4.55903 0.702567 3.3328 1.30642 2.39817 2.27059C1.46355 3.23476 0.877031 4.50096 0.736444 5.85799C0.0149354 12.8474 0.0149354 19.8962 0.736444 26.8856C0.874457 28.2432 1.45879 29.5109 2.39195 30.4771C3.3251 31.4433 4.55062 32.0495 5.86402 32.1946C12.6267 32.9439 19.4475 32.9439 26.2102 32.1946C27.5238 32.0514 28.7501 31.447 29.6846 30.4822C30.6191 29.5174 31.2051 28.2506 31.345 26.8931C32.0673 19.9013 32.0677 12.8499 31.346 5.85799H31.3429ZM25.9452 20.5167C25.9433 22.1329 25.3212 23.6823 24.2154 24.8251C23.1097 25.968 21.6105 26.6109 20.0467 26.6128H12.0462C10.481 26.6128 8.97968 25.9709 7.872 24.8279C6.76433 23.685 6.1408 22.1344 6.13832 20.5167V12.2483C6.14025 10.6318 6.7626 9.08203 7.86882 7.93916C8.97504 6.79629 10.4748 6.15364 12.0389 6.15222H20.0394C21.6036 6.15364 23.1033 6.79629 24.2095 7.93916C25.3157 9.08203 25.9381 10.6318 25.94 12.2483L25.9452 20.5167ZM20.0467 8.20322H12.0462C11.5332 8.20308 11.0252 8.30738 10.5512 8.51017C10.0773 8.71296 9.64658 9.01026 9.2838 9.3851C8.92101 9.75994 8.63323 10.205 8.43688 10.6948C8.24054 11.1846 8.13948 11.7095 8.13948 12.2397V20.5082C8.13934 21.0384 8.2403 21.5635 8.43658 22.0534C8.63287 22.5434 8.92063 22.9885 9.28343 23.3635C9.64623 23.7384 10.077 24.0358 10.551 24.2387C11.0251 24.4415 11.5331 24.5459 12.0462 24.5457H20.0467C20.5598 24.5459 21.0678 24.4415 21.5419 24.2387C22.0159 24.0358 22.4467 23.7384 22.8095 23.3635C23.1723 22.9885 23.46 22.5434 23.6563 22.0534C23.8526 21.5635 23.9535 21.0384 23.9534 20.5082V12.2397C23.9534 11.7095 23.8523 11.1846 23.656 10.6948C23.4597 10.205 23.1719 9.75994 22.8091 9.3851C22.4463 9.01026 22.0156 8.71296 21.5416 8.51017C21.0677 8.30738 20.5597 8.20308 20.0467 8.20322ZM16.0412 21.6722C15.0281 21.6722 14.0378 21.3617 13.1954 20.78C12.353 20.1983 11.6965 19.3715 11.3088 18.4041C10.9211 17.4368 10.8196 16.3724 11.0173 15.3454C11.2149 14.3185 11.7028 13.3752 12.4192 12.6348C13.1356 11.8945 14.0483 11.3903 15.0419 11.186C16.0356 10.9817 17.0655 11.0866 18.0015 11.4873C18.9375 11.8879 19.7375 12.5665 20.3004 13.4371C20.8632 14.3077 21.1636 15.3312 21.1636 16.3782C21.1636 17.7823 20.624 19.1288 19.6633 20.1216C18.7027 21.1144 17.3998 21.6722 16.0412 21.6722ZM21.1896 12.3901C20.9403 12.3901 20.6967 12.3137 20.4894 12.1705C20.2821 12.0274 20.1206 11.824 20.0252 11.586C19.9298 11.348 19.9049 11.0861 19.9535 10.8334C20.0021 10.5807 20.1222 10.3486 20.2984 10.1665C20.4747 9.9843 20.6992 9.86025 20.9437 9.80999C21.1882 9.75973 21.4416 9.78552 21.6719 9.88411C21.9022 9.9827 22.099 10.1496 22.2375 10.3638C22.376 10.5781 22.4499 10.8299 22.4499 11.0875C22.4499 11.433 22.3172 11.7643 22.0808 12.0085C21.8444 12.2528 21.5239 12.3901 21.1896 12.3901ZM16.0381 13.1417C15.4188 13.1417 14.8133 13.3315 14.2983 13.6872C13.7833 14.0428 13.3819 14.5483 13.1449 15.1397C12.9079 15.7311 12.8459 16.3818 12.9667 17.0096C13.0875 17.6375 13.3858 18.2142 13.8237 18.6668C14.2617 19.1194 14.8197 19.4277 15.4272 19.5525C16.0347 19.6774 16.6643 19.6133 17.2365 19.3684C17.8088 19.1234 18.2979 18.7086 18.642 18.1763C18.9861 17.6441 19.1697 17.0184 19.1697 16.3782C19.1697 15.5204 18.8402 14.6977 18.2536 14.0908C17.667 13.4839 16.8713 13.1426 16.0412 13.1417H16.0381Z" fill="white"/>
</svg>
