<svg width="33" height="33" viewBox="0 0 33 33" fill="none" xmlns="http://www.w3.org/2000/svg">
<path d="M31.6539 5.85973C31.5141 4.50346 30.9288 3.23765 29.9956 2.27319C29.0624 1.30874 27.8376 0.70386 26.5253 0.559334C19.7618 -0.186445 12.9406 -0.186445 6.1771 0.559334C4.86347 0.702244 3.637 1.30641 2.70233 2.27101C1.76767 3.23561 1.18135 4.50231 1.04121 5.85973C0.319598 12.8498 0.319598 19.8994 1.04121 26.8895C1.17986 28.247 1.76456 29.5143 2.69783 30.4802C3.6311 31.4461 4.85654 32.0522 6.16982 32.1974C12.9334 32.9432 19.7545 32.9432 26.518 32.1974C27.8315 32.0541 29.0578 31.4498 29.9924 30.4853C30.927 29.5208 31.5134 28.2543 31.6539 26.897C32.3761 19.9044 32.3761 12.8523 31.6539 5.85973ZM11.3057 25.922C11.306 26.0128 11.2889 26.1028 11.2555 26.1869C11.222 26.2709 11.1728 26.3472 11.1108 26.4116C11.0487 26.4759 10.975 26.527 10.8938 26.5618C10.8126 26.5967 10.7255 26.6146 10.6376 26.6146H7.7907C7.70261 26.6149 7.61534 26.5971 7.53391 26.5624C7.45248 26.5277 7.37849 26.4767 7.3162 26.4124C7.25392 26.348 7.20456 26.2715 7.17098 26.1874C7.1374 26.1032 7.12025 26.013 7.12053 25.922V13.587C7.12025 13.4958 7.13739 13.4055 7.17094 13.3212C7.2045 13.237 7.25382 13.1604 7.31608 13.0958C7.37834 13.0313 7.45231 12.9801 7.53375 12.9451C7.6152 12.9102 7.70251 12.8922 7.7907 12.8922H10.6376C10.815 12.8928 10.9849 12.966 11.1102 13.0958C11.2354 13.2256 11.3057 13.4015 11.3057 13.5848V25.922ZM9.21312 11.726C8.67882 11.726 8.15652 11.5623 7.71227 11.2555C7.26802 10.9487 6.92176 10.5127 6.7173 10.0025C6.51283 9.49235 6.45933 8.93099 6.56357 8.3894C6.66781 7.84782 6.92509 7.35034 7.3029 6.95988C7.68071 6.56942 8.16206 6.30352 8.68609 6.19579C9.21012 6.08806 9.7533 6.14335 10.2469 6.35467C10.7406 6.56598 11.1625 6.92383 11.4593 7.38296C11.7561 7.8421 11.9146 8.38189 11.9146 8.93408C11.9146 9.67455 11.63 10.3847 11.1233 10.9083C10.6167 11.4319 9.92959 11.726 9.21312 11.726ZM26.1866 25.9703C26.1869 26.054 26.1711 26.1369 26.1402 26.2143C26.1094 26.2917 26.064 26.362 26.0067 26.4212C25.9495 26.4804 25.8814 26.5273 25.8066 26.5592C25.7317 26.5911 25.6514 26.6074 25.5704 26.6071H22.5095C22.4285 26.6074 22.3483 26.5911 22.2734 26.5592C22.1985 26.5273 22.1305 26.4804 22.0732 26.4212C22.0159 26.362 21.9706 26.2917 21.9397 26.2143C21.9088 26.1369 21.8931 26.054 21.8934 25.9703V20.1942C21.8934 19.3351 22.1386 16.4122 19.7114 16.4122C17.8297 16.4122 17.4463 18.4095 17.3705 19.3061V25.98C17.3705 26.1472 17.3069 26.3077 17.1933 26.4268C17.0798 26.546 16.9255 26.6142 16.7637 26.6167H13.8056C13.7248 26.6167 13.6448 26.6002 13.5701 26.5682C13.4955 26.5362 13.4277 26.4893 13.3707 26.4301C13.3136 26.3709 13.2684 26.3007 13.2377 26.2235C13.2069 26.1462 13.1913 26.0635 13.1915 25.98V13.5365C13.1903 13.4523 13.2053 13.3688 13.2356 13.2907C13.2659 13.2125 13.3109 13.1414 13.3681 13.0815C13.4252 13.0215 13.4933 12.9739 13.5684 12.9414C13.6435 12.9089 13.7242 12.8922 13.8056 12.8922H16.7627C16.8436 12.8922 16.9237 12.9087 16.9984 12.9407C17.0732 12.9727 17.1411 13.0196 17.1983 13.0787C17.2555 13.1378 17.3009 13.208 17.3319 13.2853C17.3629 13.3625 17.3788 13.4454 17.3788 13.529V14.6028C17.8028 13.9389 18.3956 13.4085 19.0921 13.07C19.7886 12.7315 20.5619 12.5979 21.3271 12.6839C26.2219 12.6839 26.1887 17.4087 26.1887 20.002L26.1866 25.9703Z" fill="white"/>
</svg>
