<svg width="19" height="19" viewBox="0 0 19 19" fill="none" xmlns="http://www.w3.org/2000/svg">
<g clip-path="url(#clip0_855_46017)">
<path d="M3.5 10.4668C3.66412 11.9294 4.36173 13.2809 5.46016 14.2641C6.5586 15.2474 7.98123 15.7939 9.4575 15.7998C10.9338 15.8056 12.3607 15.2703 13.4669 14.2957C14.5731 13.3212 15.2815 11.9753 15.4572 10.514C15.6329 9.05281 15.2638 7.57814 14.42 6.37051C13.5763 5.16287 12.3167 4.30651 10.8809 3.96429C9.44508 3.62206 7.93317 3.81785 6.63271 4.51441C5.33226 5.21096 4.33396 6.35971 3.82768 7.74217" stroke="#262626" stroke-width="1.5" stroke-linecap="round" stroke-linejoin="round"/>
<path d="M3.5 4.7998V7.7998H6.5" stroke="#262626" stroke-width="1.5" stroke-linecap="round" stroke-linejoin="round"/>
</g>
<defs>
<clipPath id="clip0_855_46017">
<rect width="18" height="18" fill="white" transform="translate(0.5 0.799805)"/>
</clipPath>
</defs>
</svg>
