<svg width="33" height="33" viewBox="0 0 33 33" fill="none" xmlns="http://www.w3.org/2000/svg">
<path d="M14.3672 12.4536L20.5463 16.3789L14.3672 20.2998V12.4536Z" fill="white"/>
<path d="M32.0414 5.85799C31.9011 4.50227 31.3158 3.23709 30.3828 2.27309C29.4499 1.30908 28.2256 0.704412 26.9138 0.559744C20.1509 -0.18593 13.3305 -0.18593 6.56765 0.559744C5.25434 0.702567 4.02811 1.30642 3.09349 2.27059C2.15886 3.23476 1.57234 4.50096 1.43176 5.85799C0.710248 12.8474 0.710248 19.8962 1.43176 26.8856C1.56977 28.2432 2.15411 29.5109 3.08726 30.4771C4.02041 31.4433 5.24593 32.0495 6.55933 32.1946C13.322 32.9439 20.1428 32.9439 26.9055 32.1946C28.2191 32.0514 29.4454 31.447 30.3799 30.4822C31.3144 29.5174 31.9004 28.2506 32.0403 26.8931C32.7623 19.9013 32.7633 12.8498 32.0414 5.85799ZM26.1792 21.3039C25.9306 21.907 25.5291 22.4295 25.0171 22.8164C24.505 23.2033 23.9014 23.4402 23.2699 23.502C18.9307 23.9784 14.5549 23.9784 10.2157 23.502C9.58348 23.4425 8.97884 23.2066 8.46639 22.8194C7.95395 22.4322 7.55298 21.9084 7.30639 21.3039C6.68887 18.0518 6.68887 14.7068 7.30639 11.4548C7.55468 10.8514 7.95611 10.3287 8.46821 9.94176C8.98032 9.55484 9.58408 9.31812 10.2157 9.25664C14.5549 8.78023 18.9307 8.78023 23.2699 9.25664C23.9021 9.31608 24.5068 9.552 25.0192 9.93919C25.5316 10.3264 25.9326 10.8502 26.1792 11.4548C26.7966 14.7064 26.7966 18.0522 26.1792 21.3039Z" fill="white"/>
</svg>
