<svg width="202" height="54" viewBox="0 0 202 54" fill="none" xmlns="http://www.w3.org/2000/svg">
<path d="M185.554 15.5025C188.084 15.5025 190.135 13.4514 190.135 10.9212C190.135 8.39098 188.084 6.33984 185.554 6.33984C183.024 6.33984 180.973 8.39098 180.973 10.9212C180.973 13.4514 183.024 15.5025 185.554 15.5025Z" fill="white"/>
<path d="M76.2951 20.6863V23.5555C73.6111 21.3342 70.1866 19.9922 66.2069 19.9922C62.2271 19.9922 60.1447 20.9177 57.6921 22.4911C60.191 23.4629 62.6436 24.3884 65.1425 25.3602C70.5568 27.3038 77.3594 29.8028 84.8562 32.3017V20.7326H76.2951V20.6863ZM74.3515 32.1629C75.277 33.5049 75.7861 35.0783 75.7861 36.7905C75.7861 41.4644 72.0377 45.2128 67.3638 45.2128C62.6899 45.2128 58.9415 41.4644 58.9415 36.7905C58.9415 32.1166 61.7644 29.4326 65.6053 28.5996H65.6516C62.042 27.0725 58.6176 25.5916 55.5171 24.1108C52.2315 27.2113 50.1953 31.7464 50.1953 36.7905C50.1953 46.1846 57.1367 53.7276 66.2532 53.7276C75.3696 53.7276 73.6573 52.3856 76.3414 50.1644V53.0335H84.9025V36.0038C81.2929 34.7543 77.7759 33.4586 74.3978 32.1629H74.3515Z" fill="white"/>
<path d="M91.2422 38.1324V53.0333H99.7108V40.6776C96.8416 39.8909 94.0188 39.0117 91.2422 38.1324ZM99.7108 24.8975V20.6863H91.2422V34.3378C94.0651 35.217 96.9805 36.0963 99.8959 36.9755C100.775 30.0341 104.385 28.4607 109.614 28.4607V19.9922C105.264 19.9922 102.025 21.7044 99.7108 24.8975Z" fill="white"/>
<path d="M135.206 28.6454V20.6859H126.413V13.4668H117.852V20.6859H112.484V28.6454H117.852V41.4639C120.768 42.0654 123.683 42.6208 126.552 43.0372C126.46 42.6208 126.413 42.2043 126.413 41.7415V28.6454H135.206ZM135.808 46.9707C130.162 46.7856 124.192 46.0915 118.084 44.9808C118.084 44.9808 118.084 44.9808 118.084 45.0271C119.148 50.9505 123.174 53.4957 129.051 53.4957C134.928 53.4957 136.178 51.2744 138.029 49.1457L135.761 46.9244L135.808 46.9707Z" fill="white"/>
<path d="M150.988 53.0804H142.52V47.0182C144.648 46.9257 146.731 46.7405 148.721 46.4629C148.952 48.9618 149.646 51.5533 150.988 53.1267V53.0804Z" fill="white"/>
<path d="M163.669 41.0477C162.42 41.603 161.124 42.1583 159.782 42.5748C159.504 40.9552 160.291 39.752 161.679 39.1504C162.049 39.5206 162.42 39.9371 162.79 40.3073C163.021 40.5387 163.253 40.7701 163.484 40.9552C163.53 40.9552 163.577 41.0477 163.669 41.0477Z" fill="white"/>
<path d="M174.594 36.3276V53.0332H163.533C163.857 51.0433 162.469 48.9609 161.358 47.1561C160.664 46.0455 160.202 44.7035 159.924 43.4078C161.451 42.8525 162.978 42.1583 164.274 41.3254C165.338 41.9269 166.356 42.3434 166.912 43.5929C167.004 43.778 167.467 43.8243 167.791 43.8243C169.549 43.8243 170.567 42.2971 169.827 40.5849C168.902 38.3637 167.976 36.1425 166.819 34.06C165.986 32.5792 165.338 31.1447 165.57 29.0622C165.061 29.6638 164.783 29.9878 164.274 30.5431C164.413 29.525 164.505 28.8309 164.644 27.9053C163.95 28.4607 163.302 28.7846 162.886 29.2936C162.191 30.2191 161.451 30.2654 160.34 30.1729C154.695 29.4787 149.095 34.8005 148.401 39.9834C148.864 39.9834 148.956 39.0116 149.465 39.0116C149.465 39.1967 149.465 39.3355 149.465 39.428C148.956 40.4924 148.679 42.3434 148.679 44.3333C146.689 44.4721 144.653 44.5184 142.57 44.4721V5.50781H151.039V23.4166C153.214 21.2416 156.129 19.9922 159.785 19.9922C169.781 19.9922 174.64 27.2575 174.64 36.3276H174.594Z" fill="white"/>
<path d="M65.7009 28.645H65.6546C62.0451 27.1179 58.6669 25.6371 55.5664 24.1562C58.6669 25.5908 62.0914 27.0716 65.7009 28.5987V28.645Z" fill="white"/>
<path d="M84.8569 36.003C81.2473 34.7999 77.7766 33.5041 74.3984 32.1621C77.7766 33.4578 81.2936 34.7536 84.9032 36.003H84.8569Z" fill="white"/>
<path d="M99.7107 40.676C96.8879 39.8893 94.0188 39.0564 91.2422 38.1309C94.0188 38.9638 96.8879 39.8431 99.7107 40.676Z" fill="white"/>
<path d="M135.899 47.0635C130.207 46.8784 124.237 46.1843 118.129 45.0736C118.129 45.0736 118.129 45.0736 118.129 45.0273C124.191 46.138 130.161 46.8321 135.853 47.0172L135.945 47.1098L135.899 47.0635Z" fill="white"/>
<path opacity="0.5" d="M35.4348 39.9818C35.4348 40.0744 35.4348 40.1669 35.4348 40.2595C35.3886 41.1387 35.1109 41.8791 34.6944 42.4344C34.6019 42.6195 34.463 42.7584 34.3242 42.8972C34.8795 42.1568 35.296 41.2313 35.4348 39.9355V39.9818Z" fill="white"/>
<path opacity="0.5" d="M29.6037 25.2201L24.4208 31.4211L14.3789 28.4132L19.4693 22.3047C19.8858 22.4898 20.3948 22.6286 20.9038 22.7675L29.5112 25.1738L29.6037 25.2201Z" fill="white"/>
<path d="M43.8107 39.9817V53.4943H0.496094V45.1646L13.7311 29.292L14.4253 28.459L24.4672 31.4669C24.5598 31.4669 24.6986 31.5595 24.7912 31.5595C24.8837 31.5595 25.0226 31.652 25.1151 31.6983C25.9944 32.0222 26.9199 32.4387 27.2438 32.7164C27.7529 33.1791 28.0305 33.7807 28.0305 34.6137C28.0305 35.4467 28.0305 34.7525 28.0305 34.8451C27.9842 35.9094 27.4752 36.6961 26.5034 37.2977C25.5316 37.8993 23.8656 38.1307 21.5518 38.0381C21.1816 38.0381 20.58 37.9456 20.0247 37.8993C19.8859 37.8993 19.7471 37.8993 19.6545 37.8993C19.5157 37.8993 19.3768 37.8993 19.2843 37.853L18.7752 38.4546L13.0833 45.2572H30.0204C32.0103 45.2572 33.8151 44.1928 34.7869 42.5732C35.1571 41.9716 35.4347 41.2774 35.5273 40.3982C35.5273 40.3056 35.5273 40.2131 35.5273 40.1205H43.9033L43.8107 39.9817Z" fill="white"/>
<path d="M35.4357 40.2598C35.3895 41.139 35.1118 41.8794 34.6953 42.4347C35.0655 41.7869 35.3432 41.0465 35.4357 40.2598Z" fill="white"/>
<path d="M43.7182 0V8.28343L38.489 14.577C36.4528 13.6977 33.6762 12.4483 31.9177 11.569C32.1491 11.6616 32.3342 11.8467 32.5656 11.9855C33.7688 12.6797 37.8411 15.086 38.0262 15.2248L37.8411 15.4562L37.4246 16.0115L37.0544 16.4743L29.6965 25.313L21.0891 22.9067C20.5338 22.7679 20.071 22.629 19.6545 22.4439C19.238 22.2588 19.3768 22.3051 19.6545 22.4439C19.6082 22.4439 19.5157 22.3976 19.4231 22.3514C19.4231 22.3514 19.4231 22.3514 19.3768 22.3514C19.238 22.2588 19.0529 22.2125 19.0529 22.2125C18.5901 21.9812 18.2662 21.7498 18.0348 21.5184C17.4332 20.9168 17.1556 20.1764 17.2019 19.2509C17.2944 18.0014 17.8497 17.0759 18.9141 16.4743C19.8396 15.919 21.1816 15.6876 22.8476 15.6876C24.5135 15.6876 23.4492 15.6876 23.7731 15.6876C23.9582 15.6876 24.1896 15.6876 24.421 15.7339C24.421 15.7339 24.5598 15.7339 24.7912 15.8264C24.7912 15.8264 24.8375 15.8264 24.8837 15.8264C24.9763 15.8264 25.0688 15.8264 25.1614 15.919L25.7167 15.2248L31.4087 8.37598H15.2582C12.2966 8.37598 9.84392 10.6898 9.65881 13.6515H0.496094V0H43.7182Z" fill="white"/>
<path d="M196.059 44.3787C195.689 44.7952 194.995 45.5356 193.977 45.8133C193.699 45.9059 193.422 45.9059 193.144 45.9059C191.571 45.9059 190.506 45.258 189.951 44.1011C189.719 43.592 189.581 43.0367 189.581 42.3889C189.581 42.2963 189.581 42.2037 189.581 42.1112V29.015V21.0554V20.9629H181.02V42.1112C181.02 42.25 181.02 42.3426 181.02 42.4814C181.112 48.1271 183.333 51.459 186.943 52.9399C188.47 53.5877 190.229 53.8654 192.218 53.8654C194.208 53.8654 193.931 53.7728 194.717 53.5877C194.764 53.5877 194.81 53.5877 194.856 53.5877C197.679 52.8936 199.761 51.1814 201.196 49.5617L196.013 44.3787H196.059Z" fill="white"/>
<path d="M149.738 45.8143C150.664 45.6755 151.543 45.5367 152.422 45.3516C151.543 45.5367 150.618 45.6755 149.738 45.8143Z" fill="white"/>
<path d="M155.938 44.564C156.77 44.3327 157.65 44.055 158.436 43.7773C157.603 44.055 156.77 44.3327 155.938 44.564Z" fill="white"/>
<path d="M163.203 41.7402C162.694 42.0179 162.185 42.2493 161.676 42.4807C162.185 42.2493 162.694 41.9716 163.203 41.7402Z" fill="white"/>
<path d="M149.738 45.8143C150.664 45.6755 151.543 45.5367 152.422 45.3516C151.543 45.5367 150.618 45.6755 149.738 45.8143Z" fill="white"/>
<path d="M155.938 44.564C156.77 44.3327 157.65 44.055 158.436 43.7773C157.603 44.055 156.77 44.3327 155.938 44.564Z" fill="white"/>
<path d="M163.203 41.7402C162.694 42.0179 162.185 42.2493 161.676 42.4807C162.185 42.2493 162.694 41.9716 163.203 41.7402Z" fill="white"/>
<path d="M100.359 38.0859C101.84 38.5024 103.275 38.9189 104.756 39.2891C103.275 38.9189 101.794 38.5024 100.359 38.0859Z" fill="white"/>
<path d="M136.504 44.9805C136.92 44.9805 137.383 45.0267 137.8 45.073C137.383 45.073 136.92 45.073 136.504 44.9805Z" fill="white"/>
<path d="M137.797 45.0273C138.398 45.0273 138.954 45.0736 139.555 45.1199C139 45.1199 138.398 45.1199 137.797 45.0273Z" fill="white"/>
<path d="M135.344 44.8887C135.714 44.8887 136.13 44.9349 136.501 44.9812C136.13 44.9812 135.714 44.9349 135.344 44.8887Z" fill="white"/>
<path d="M134.234 44.7949C134.605 44.7949 134.975 44.8412 135.345 44.8875C134.975 44.8875 134.605 44.8412 134.234 44.7949Z" fill="white"/>
<path d="M147.422 45.0261C147.746 45.0261 148.07 45.0261 148.394 44.9336C148.07 44.9336 147.746 44.9336 147.422 45.0261Z" fill="white"/>
<path d="M148.395 44.9351C149.089 44.8888 149.783 44.7963 150.477 44.75C149.783 44.8426 149.089 44.8888 148.395 44.9351Z" fill="white"/>
<path d="M146.266 45.073C146.636 45.073 147.006 45.073 147.376 44.9805C147.006 44.9805 146.636 45.0267 146.266 45.073Z" fill="white"/>
<path d="M112.07 41.1387C112.394 41.2312 112.718 41.2775 112.996 41.3701C112.672 41.2775 112.348 41.2312 112.07 41.1387Z" fill="white"/>
<path d="M116.973 42.2031C117.343 42.2957 117.713 42.342 118.037 42.4345C117.667 42.342 117.297 42.2957 116.973 42.2031Z" fill="white"/>
<path d="M120.258 42.8516C120.628 42.9441 120.998 42.9904 121.368 43.0367C120.998 42.9904 120.628 42.8978 120.258 42.8516Z" fill="white"/>
<path d="M112.992 41.3711C113.501 41.4636 114.01 41.6025 114.473 41.695C113.964 41.6025 113.501 41.4636 112.992 41.3711Z" fill="white"/>
<path d="M130.719 44.4707C131.135 44.4707 131.505 44.5633 131.876 44.6095C131.459 44.6095 131.089 44.517 130.719 44.4707Z" fill="white"/>
<path d="M114.52 41.6953C114.89 41.7879 115.26 41.8341 115.584 41.9267C115.214 41.8341 114.843 41.7879 114.52 41.6953Z" fill="white"/>
<path d="M127.48 44.0547C128.082 44.1472 128.684 44.2398 129.285 44.2861C128.684 44.1935 128.082 44.1472 127.48 44.0547Z" fill="white"/>
<path d="M129.281 44.2871C129.744 44.3334 130.253 44.4259 130.716 44.4722C130.253 44.4259 129.744 44.3797 129.281 44.2871Z" fill="white"/>
<path d="M126.273 43.8691C126.69 43.9154 127.06 43.9617 127.477 44.0542C127.06 44.008 126.69 43.9617 126.273 43.8691Z" fill="white"/>
<path d="M121.367 43.084C121.784 43.1765 122.246 43.2228 122.663 43.3154C122.246 43.2228 121.83 43.1765 121.367 43.084Z" fill="white"/>
<path d="M125.027 43.6855C125.444 43.7318 125.86 43.8244 126.231 43.8707C125.814 43.8244 125.398 43.7318 125.027 43.6855Z" fill="white"/>
<path d="M123.867 43.5C124.284 43.5463 124.654 43.6388 125.024 43.6851C124.654 43.6388 124.237 43.5463 123.867 43.5Z" fill="white"/>
<path d="M122.664 43.3145C123.081 43.407 123.497 43.4533 123.867 43.4996C123.451 43.4533 123.034 43.3607 122.664 43.3145Z" fill="white"/>
<path d="M167.554 39.0116C166.212 40.0297 164.731 40.9552 163.25 41.7419C162.741 42.0196 162.232 42.251 161.723 42.4823C160.659 42.9451 159.595 43.3616 158.484 43.7781C157.651 44.0557 156.818 44.3334 155.985 44.5648C154.828 44.8887 153.671 45.1664 152.514 45.3977C151.635 45.5828 150.71 45.7217 149.83 45.8605C148.905 45.9993 147.979 46.0919 147.054 46.1844C146.452 46.2307 145.804 46.277 145.203 46.3233C143.629 46.4158 142.056 46.4621 140.436 46.4621C137.243 46.4621 133.958 46.277 130.672 45.953C129.793 45.8605 128.913 45.7679 128.034 45.6754H127.664C126.785 45.5366 125.906 45.3977 125.073 45.2589C123.592 45.0275 122.157 44.7961 120.723 44.5648C119.89 44.4259 119.01 44.2408 118.177 44.102C116.835 43.8243 115.447 43.5467 114.151 43.269C113.272 43.0839 112.393 42.8988 111.514 42.6674C109.755 42.2972 108.089 41.8807 106.423 41.4643C105.59 41.2792 104.757 41.0478 103.971 40.8627C101.981 40.3536 100.037 39.8446 98.2323 39.3356C77.6857 33.1345 57.5093 25.3139 38.536 15.1794C38.4435 15.1331 38.3509 15.0868 38.2584 15.0406C38.2584 15.0406 38.2121 15.0406 38.1658 15.0406C36.2685 14.0225 34.4175 13.0044 32.5664 11.9863C34.4637 12.9581 36.4073 13.9299 38.3509 14.8092C38.3509 14.8092 38.3972 14.8092 38.4435 14.8092C38.536 14.8555 38.6286 14.9017 38.7674 14.948C42.053 16.4751 45.3849 17.956 48.7631 19.3905C57.972 23.2777 71.3459 28.7383 86.0154 33.6436C86.8021 33.9212 87.5888 34.1526 88.3755 34.4303C90.0877 34.9856 91.7999 35.5409 93.5122 36.0962C94.4377 36.3739 95.4095 36.6515 96.335 36.9755C97.677 37.392 99.0653 37.7622 100.407 38.1786C101.888 38.5951 103.323 39.0116 104.804 39.3818C105.914 39.6595 106.979 39.9371 108.043 40.2148C108.598 40.3536 109.107 40.4925 109.663 40.6313C110.449 40.8164 111.282 41.0015 112.069 41.1866C112.393 41.2792 112.717 41.3254 112.994 41.418C113.503 41.5105 114.013 41.6494 114.475 41.7419C115.308 41.927 116.141 42.1121 116.974 42.251C117.344 42.3435 117.715 42.3898 118.039 42.4823C118.779 42.6212 119.519 42.76 120.26 42.8988C120.63 42.9914 121 43.0376 121.37 43.0839C121.787 43.1765 122.25 43.2228 122.666 43.3153C123.083 43.4079 123.499 43.4541 123.869 43.5004C124.656 43.6392 125.489 43.7781 126.276 43.8706C127.757 44.102 129.191 44.2871 130.626 44.4259C130.626 44.4259 130.672 44.4259 130.718 44.4259C136.966 45.1664 142.935 45.3515 148.396 44.935C149.09 44.8887 149.784 44.7961 150.478 44.7499C151.357 44.6573 152.19 44.5185 153.023 44.3797C153.579 44.2871 154.134 44.1946 154.643 44.102C154.921 44.0557 155.198 44.0094 155.476 43.9169C155.985 43.8243 156.54 43.6855 157.049 43.5467C157.327 43.4541 157.558 43.4079 157.836 43.3616C158.345 43.2228 158.854 43.0839 159.363 42.8988C160.104 42.6674 160.844 42.3898 161.584 42.1121C162.047 41.927 162.51 41.7419 162.973 41.5105C164.592 40.7701 166.12 39.9834 167.554 39.0116Z" fill="white"/>
</svg>
